# xmcd
#
# Track frame offsets: 
#        150
#        17792
#        36230
#        56334
#        73034
#        93361
#        112802
#        130009
#        150181
#        167021
#        182147
#        203206
#        217181
#
# Disc length: 3177 seconds
#
# Revision: 0
# Processed by: cddbd v1.5.2PL0 Copyright (c) Steve Scherf et al.
# Submitted via: ExactAudioCopy v1.0b3
#
DISCID=aa0c670d
DTITLE=Various Artist - Hanh Phuc Dau Xuan
DYEAR=2008
DGENRE=
TTITLE0=Nhu Y - Khuc Xuan ca
TTITLE1=be My Linh - Bup be mua Xuan
TTITLE2=Quang Dung - Hay mang den nhung mua Xuan
TTITLE3=Thuy Lam - Hat cho Xuan tuyet voi
TTITLE4=Quang Linh - Hanh phuc dau Xuan
TTITLE5=My Tam - Yeu em nhieu hon nang Xuan
TTITLE6=thieu nhi BITI - Xuan den
TTITLE7=Cam Ly - Neu Xuan nay vang anh
TTITLE8=Cao Thai Son - Xuan ben em
TTITLE9=Ho Quynh Huong, Minh Ha - Xuan tinh yeu
TTITLE10=Xuan Phu - Anh cho em mua Xuan
TTITLE11=Pham Khanh Hung - Mong chieu Xuan
TTITLE12=Pham Thanh Thao - Xuan va tuoi tre
EXTD=
EXTT0=
EXTT1=
EXTT2=
EXTT3=
EXTT4=
EXTT5=
EXTT6=
EXTT7=
EXTT8=
EXTT9=
EXTT10=
EXTT11=
EXTT12=
PLAYORDER=
